<svg xmlns="http://www.w3.org/2000/svg" viewBox="0 0 800 300">
  <defs>
    <!-- Leather crosshatch texture -->
    <pattern id="leather" x="0" y="0" width="8" height="8" patternUnits="userSpaceOnUse">
      <rect width="8" height="8" fill="#1a0d06"/>
      <line x1="0" y1="0" x2="8" y2="8" stroke="#130a04" stroke-width="0.6" opacity="0.7"/>
      <line x1="8" y1="0" x2="0" y2="8" stroke="#130a04" stroke-width="0.6" opacity="0.7"/>
    </pattern>
    <!-- Left-side cover lighting -->
    <linearGradient id="cover-sheen" x1="0" y1="0" x2="1" y2="0">
      <stop offset="0%" stop-color="#ffffff" stop-opacity="0.12"/>
      <stop offset="40%" stop-color="#ffffff" stop-opacity="0"/>
    </linearGradient>
    <!-- Top edge cover lighting -->
    <linearGradient id="cover-top" x1="0" y1="0" x2="0" y2="1">
      <stop offset="0%" stop-color="#ffffff" stop-opacity="0.1"/>
      <stop offset="25%" stop-color="#ffffff" stop-opacity="0"/>
    </linearGradient>
    <!-- Soft glow filter -->
    <filter id="soft-glow" x="-25%" y="-25%" width="150%" height="150%">
      <feGaussianBlur stdDeviation="2.5" result="blur"/>
      <feMerge>
        <feMergeNode in="blur"/>
        <feMergeNode in="SourceGraphic"/>
      </feMerge>
    </filter>
    <!-- Title glow filter -->
    <filter id="title-glow" x="-20%" y="-20%" width="140%" height="140%">
      <feGaussianBlur stdDeviation="4" result="blur"/>
      <feMerge>
        <feMergeNode in="blur"/>
        <feMergeNode in="SourceGraphic"/>
      </feMerge>
    </filter>
    <!-- Large aura filter (ambient) -->
    <filter id="aura" x="-80%" y="-80%" width="260%" height="260%">
      <feGaussianBlur stdDeviation="22"/>
    </filter>
    <!-- Sparkle glow -->
    <filter id="sparkle-glow" x="-60%" y="-60%" width="220%" height="220%">
      <feGaussianBlur stdDeviation="2" result="blur"/>
      <feMerge>
        <feMergeNode in="blur"/>
        <feMergeNode in="SourceGraphic"/>
      </feMerge>
    </filter>
  </defs>

  <!-- ── BACKGROUND ──────────────────────────────────── -->
  <rect width="800" height="300" fill="#080c18"/>

  <!-- Star field -->
  <circle cx="30"  cy="25"  r="1"   fill="#ffffff" opacity="0.22"/>
  <circle cx="75"  cy="82"  r="0.8" fill="#ffffff" opacity="0.18"/>
  <circle cx="48"  cy="158" r="1.2" fill="#ffffff" opacity="0.18"/>
  <circle cx="22"  cy="252" r="0.8" fill="#ffffff" opacity="0.14"/>
  <circle cx="96"  cy="278" r="1"   fill="#ffffff" opacity="0.18"/>
  <circle cx="345" cy="22"  r="0.8" fill="#ffffff" opacity="0.14"/>
  <circle cx="385" cy="88"  r="1.2" fill="#ffffff" opacity="0.18"/>
  <circle cx="418" cy="278" r="0.8" fill="#ffffff" opacity="0.14"/>
  <circle cx="505" cy="32"  r="1"   fill="#ffffff" opacity="0.18"/>
  <circle cx="528" cy="268" r="0.8" fill="#ffffff" opacity="0.14"/>
  <circle cx="582" cy="128" r="1.2" fill="#ffffff" opacity="0.18"/>
  <circle cx="642" cy="42"  r="0.8" fill="#ffffff" opacity="0.14"/>
  <circle cx="658" cy="268" r="1"   fill="#ffffff" opacity="0.18"/>
  <circle cx="718" cy="148" r="0.8" fill="#ffffff" opacity="0.14"/>
  <circle cx="752" cy="32"  r="1.2" fill="#ffffff" opacity="0.18"/>
  <circle cx="782" cy="178" r="0.8" fill="#ffffff" opacity="0.14"/>
  <circle cx="792" cy="258" r="1"   fill="#ffffff" opacity="0.18"/>
  <circle cx="452" cy="148" r="0.8" fill="#ffffff" opacity="0.10"/>
  <circle cx="612" cy="198" r="0.8" fill="#ffffff" opacity="0.10"/>
  <circle cx="352" cy="198" r="1"   fill="#ffffff" opacity="0.10"/>

  <!-- Book ambient warm glow -->
  <ellipse cx="191" cy="150" rx="115" ry="145" fill="#c9933a" opacity="0.07" filter="url(#aura)"/>

  <!-- ── BOOK SHAPE ──────────────────────────────────── -->

  <!-- Spine -->
  <rect x="100" y="18" width="14" height="264" fill="#110804"/>
  <line x1="101" y1="60"  x2="113" y2="60"  stroke="#c9933a" stroke-width="0.8" opacity="0.35"/>
  <line x1="101" y1="90"  x2="113" y2="90"  stroke="#c9933a" stroke-width="0.8" opacity="0.35"/>
  <line x1="101" y1="120" x2="113" y2="120" stroke="#c9933a" stroke-width="0.5" opacity="0.22"/>
  <line x1="101" y1="150" x2="113" y2="150" stroke="#c9933a" stroke-width="0.8" opacity="0.35"/>
  <line x1="101" y1="180" x2="113" y2="180" stroke="#c9933a" stroke-width="0.5" opacity="0.22"/>
  <line x1="101" y1="210" x2="113" y2="210" stroke="#c9933a" stroke-width="0.8" opacity="0.35"/>
  <line x1="101" y1="240" x2="113" y2="240" stroke="#c9933a" stroke-width="0.8" opacity="0.35"/>
  <!-- Spine left gold edge -->
  <line x1="100" y1="18" x2="100" y2="282" stroke="#c9933a" stroke-width="0.75" opacity="0.55"/>
  <!-- Spine right shadow -->
  <line x1="114" y1="18" x2="114" y2="282" stroke="#000000" stroke-width="1" opacity="0.4"/>

  <!-- Cover face (leather texture + lighting) -->
  <rect x="114" y="18" width="154" height="264" fill="url(#leather)"/>
  <rect x="114" y="18" width="154" height="264" fill="url(#cover-sheen)"/>
  <rect x="114" y="18" width="154" height="80"  fill="url(#cover-top)"/>

  <!-- Page edges -->
  <rect x="268" y="22" width="7" height="256" fill="#6a5228" opacity="0.55"/>
  <line x1="269" y1="30"  x2="274" y2="30"  stroke="#c9a84c" stroke-width="0.6" opacity="0.55"/>
  <line x1="269" y1="44"  x2="274" y2="44"  stroke="#c9a84c" stroke-width="0.6" opacity="0.55"/>
  <line x1="269" y1="58"  x2="274" y2="58"  stroke="#c9a84c" stroke-width="0.6" opacity="0.55"/>
  <line x1="269" y1="72"  x2="274" y2="72"  stroke="#c9a84c" stroke-width="0.6" opacity="0.55"/>
  <line x1="269" y1="86"  x2="274" y2="86"  stroke="#c9a84c" stroke-width="0.6" opacity="0.55"/>
  <line x1="269" y1="100" x2="274" y2="100" stroke="#c9a84c" stroke-width="0.6" opacity="0.55"/>
  <line x1="269" y1="116" x2="274" y2="116" stroke="#c9a84c" stroke-width="0.6" opacity="0.40"/>
  <line x1="269" y1="132" x2="274" y2="132" stroke="#c9a84c" stroke-width="0.6" opacity="0.55"/>
  <line x1="269" y1="150" x2="274" y2="150" stroke="#c9a84c" stroke-width="0.6" opacity="0.55"/>
  <line x1="269" y1="168" x2="274" y2="168" stroke="#c9a84c" stroke-width="0.6" opacity="0.40"/>
  <line x1="269" y1="184" x2="274" y2="184" stroke="#c9a84c" stroke-width="0.6" opacity="0.55"/>
  <line x1="269" y1="200" x2="274" y2="200" stroke="#c9a84c" stroke-width="0.6" opacity="0.55"/>
  <line x1="269" y1="216" x2="274" y2="216" stroke="#c9a84c" stroke-width="0.6" opacity="0.55"/>
  <line x1="269" y1="232" x2="274" y2="232" stroke="#c9a84c" stroke-width="0.6" opacity="0.55"/>
  <line x1="269" y1="248" x2="274" y2="248" stroke="#c9a84c" stroke-width="0.6" opacity="0.55"/>
  <line x1="269" y1="262" x2="274" y2="262" stroke="#c9a84c" stroke-width="0.6" opacity="0.55"/>

  <!-- ── BOOK ORNAMENTS ───────────────────────────────── -->

  <!-- Outer gold border on cover -->
  <rect x="118" y="22" width="146" height="256" fill="none" stroke="#c9933a" stroke-width="1.5"/>
  <!-- Inner gold border -->
  <rect x="128" y="32" width="126" height="236" fill="none" stroke="#c9933a" stroke-width="0.6" opacity="0.5"/>

  <!-- Corner ornament: Top-Left -->
  <circle cx="133" cy="37" r="2.5" fill="#c9933a" filter="url(#soft-glow)"/>
  <line x1="135.5" y1="37" x2="151" y2="37" stroke="#c9933a" stroke-width="1.2"/>
  <line x1="133"   y1="39.5" x2="133" y2="55" stroke="#c9933a" stroke-width="1.2"/>
  <circle cx="151" cy="37" r="1.5" fill="#c9933a" opacity="0.6"/>
  <circle cx="133" cy="55" r="1.5" fill="#c9933a" opacity="0.6"/>

  <!-- Corner ornament: Top-Right -->
  <circle cx="247" cy="37" r="2.5" fill="#c9933a" filter="url(#soft-glow)"/>
  <line x1="244.5" y1="37" x2="229" y2="37" stroke="#c9933a" stroke-width="1.2"/>
  <line x1="247"   y1="39.5" x2="247" y2="55" stroke="#c9933a" stroke-width="1.2"/>
  <circle cx="229" cy="37" r="1.5" fill="#c9933a" opacity="0.6"/>
  <circle cx="247" cy="55" r="1.5" fill="#c9933a" opacity="0.6"/>

  <!-- Corner ornament: Bottom-Left -->
  <circle cx="133" cy="263" r="2.5" fill="#c9933a" filter="url(#soft-glow)"/>
  <line x1="135.5" y1="263" x2="151" y2="263" stroke="#c9933a" stroke-width="1.2"/>
  <line x1="133"   y1="260.5" x2="133" y2="245" stroke="#c9933a" stroke-width="1.2"/>
  <circle cx="151" cy="263" r="1.5" fill="#c9933a" opacity="0.6"/>
  <circle cx="133" cy="245" r="1.5" fill="#c9933a" opacity="0.6"/>

  <!-- Corner ornament: Bottom-Right -->
  <circle cx="247" cy="263" r="2.5" fill="#c9933a" filter="url(#soft-glow)"/>
  <line x1="244.5" y1="263" x2="229" y2="263" stroke="#c9933a" stroke-width="1.2"/>
  <line x1="247"   y1="260.5" x2="247" y2="245" stroke="#c9933a" stroke-width="1.2"/>
  <circle cx="229" cy="263" r="1.5" fill="#c9933a" opacity="0.6"/>
  <circle cx="247" cy="245" r="1.5" fill="#c9933a" opacity="0.6"/>

  <!-- ── MAGICAL SEAL (cx=221, cy=150) ──────────────── -->

  <!-- Ambient seal glow -->
  <circle cx="191" cy="150" r="56" fill="none" stroke="#c9933a" stroke-width="10" opacity="0.06" filter="url(#aura)"/>

  <!-- Outer ring -->
  <circle cx="191" cy="150" r="55" fill="none" stroke="#c9933a" stroke-width="1"/>

  <!-- Dashed inner ring -->
  <circle cx="191" cy="150" r="48" fill="none" stroke="#c9933a" stroke-width="0.5" stroke-dasharray="4 3" opacity="0.65"/>

  <!-- 8-pointed star: fill layer -->
  <polygon
    points="191,112 196.7,136.1 217.9,123.1 204.9,144.3 229,150 204.9,155.7 217.9,176.9 196.7,163.9 191,188 185.3,163.9 164.1,176.9 177.1,155.7 153,150 177.1,144.3 164.1,123.1 185.3,136.1"
    fill="#c9933a" opacity="0.13"/>

  <!-- 8-pointed star: stroke + glow -->
  <polygon
    points="191,112 196.7,136.1 217.9,123.1 204.9,144.3 229,150 204.9,155.7 217.9,176.9 196.7,163.9 191,188 185.3,163.9 164.1,176.9 177.1,155.7 153,150 177.1,144.3 164.1,123.1 185.3,136.1"
    fill="none" stroke="#c9933a" stroke-width="1" filter="url(#soft-glow)"/>

  <!-- Inner small circle -->
  <circle cx="191" cy="150" r="20" fill="none" stroke="#c9933a" stroke-width="0.6" opacity="0.45"/>

  <!-- Center node -->
  <circle cx="191" cy="150" r="5.5" fill="#c9933a" opacity="0.75" filter="url(#soft-glow)"/>

  <!-- 8 rune tick marks (r=59 to r=65, outside outer ring) -->
  <!-- 0° top -->
  <line x1="191" y1="85"  x2="191" y2="91"  stroke="#c9933a" stroke-width="1.5" opacity="0.8"/>
  <!-- 45° top-right -->
  <line x1="237" y1="104" x2="232.7" y2="108.3" stroke="#c9933a" stroke-width="1.5" opacity="0.8"/>
  <!-- 90° right -->
  <line x1="256" y1="150" x2="250"   y2="150"  stroke="#c9933a" stroke-width="1.5" opacity="0.8"/>
  <!-- 135° bottom-right -->
  <line x1="237" y1="196" x2="232.7" y2="191.7" stroke="#c9933a" stroke-width="1.5" opacity="0.8"/>
  <!-- 180° bottom -->
  <line x1="191" y1="215" x2="191"   y2="209"  stroke="#c9933a" stroke-width="1.5" opacity="0.8"/>
  <!-- 225° bottom-left -->
  <line x1="145" y1="196" x2="149.3" y2="191.7" stroke="#c9933a" stroke-width="1.5" opacity="0.8"/>
  <!-- 270° left -->
  <line x1="126" y1="150" x2="132"   y2="150"  stroke="#c9933a" stroke-width="1.5" opacity="0.8"/>
  <!-- 315° top-left -->
  <line x1="145" y1="104" x2="149.3" y2="108.3" stroke="#c9933a" stroke-width="1.5" opacity="0.8"/>

  <!-- ── BOOK CLASP ───────────────────────────────────── -->
  <polygon points="268,144 277,150 268,156 261,150" fill="#c9933a" opacity="0.85" filter="url(#soft-glow)"/>
  <line x1="277" y1="150" x2="285" y2="150" stroke="#c9933a" stroke-width="1" opacity="0.45"/>

  <!-- ── TITLE ZONE ──────────────────────────────────── -->

  <!-- Title glow shadow -->
  <text x="533" y="147"
    font-family="Georgia, 'Palatino Linotype', 'Times New Roman', serif"
    font-size="64" fill="#c9933a" text-anchor="middle" letter-spacing="10"
    opacity="0.15" filter="url(#aura)">GRIMOIRE</text>

  <!-- Title -->
  <text x="531" y="144"
    font-family="Georgia, 'Palatino Linotype', 'Times New Roman', serif"
    font-size="64" fill="#c9933a" text-anchor="middle" letter-spacing="10"
    filter="url(#title-glow)">GRIMOIRE</text>

  <!-- Divider -->
  <line x1="328" y1="160" x2="486" y2="160" stroke="#c9933a" stroke-width="0.75" opacity="0.38"/>
  <polygon points="500,160 511,166 522,160 511,154" fill="#c9933a" opacity="0.52" filter="url(#soft-glow)"/>
  <line x1="536" y1="160" x2="736" y2="160" stroke="#c9933a" stroke-width="0.75" opacity="0.38"/>

  <!-- Subtitle line 1 -->
  <text x="531" y="184"
    font-family="'Courier New', Courier, monospace"
    font-size="12" fill="#6e7ea0" text-anchor="middle" letter-spacing="0.5">
    The world's professional best practices
  </text>

  <!-- Subtitle line 2 -->
  <text x="531" y="202"
    font-family="'Courier New', Courier, monospace"
    font-size="12" fill="#6e7ea0" text-anchor="middle" letter-spacing="0.5">
    your expert consultant, anywhere, anytime.
  </text>

  <!-- ── SPARKLES ────────────────────────────────────── -->

  <!-- 4-pointed star: M cx,cy-R L cx+r,cy L cx,cy+R L cx-r,cy Z  (R=outer, r=inner) -->

  <!-- (55, 55) R=6 r=2 large -->
  <path d="M 55,49 L 57,55 L 55,61 L 53,55 Z" fill="#e8d08a" opacity="0.72" filter="url(#sparkle-glow)"/>
  <line x1="55" y1="47" x2="55" y2="49" stroke="#e8d08a" stroke-width="0.8" opacity="0.5"/>
  <line x1="55" y1="61" x2="55" y2="63" stroke="#e8d08a" stroke-width="0.8" opacity="0.5"/>
  <line x1="47" y1="55" x2="49" y2="55" stroke="#e8d08a" stroke-width="0.8" opacity="0.5"/>
  <line x1="61" y1="55" x2="63" y2="55" stroke="#e8d08a" stroke-width="0.8" opacity="0.5"/>

  <!-- (80, 215) R=4 r=1.5 medium -->
  <path d="M 80,211 L 81.5,215 L 80,219 L 78.5,215 Z" fill="#e8d08a" opacity="0.50" filter="url(#sparkle-glow)"/>

  <!-- (108, 132) R=3 r=1 small -->
  <path d="M 108,129 L 109,132 L 108,135 L 107,132 Z" fill="#e8d08a" opacity="0.38" filter="url(#sparkle-glow)"/>

  <!-- (398, 46) R=5 r=2 medium -->
  <path d="M 398,41 L 400,46 L 398,51 L 396,46 Z" fill="#e8d08a" opacity="0.62" filter="url(#sparkle-glow)"/>
  <line x1="398" y1="39" x2="398" y2="41" stroke="#e8d08a" stroke-width="0.8" opacity="0.42"/>
  <line x1="398" y1="51" x2="398" y2="53" stroke="#e8d08a" stroke-width="0.8" opacity="0.42"/>
  <line x1="391" y1="46" x2="393" y2="46" stroke="#e8d08a" stroke-width="0.8" opacity="0.42"/>
  <line x1="403" y1="46" x2="405" y2="46" stroke="#e8d08a" stroke-width="0.8" opacity="0.42"/>

  <!-- (474, 257) R=3 r=1 small -->
  <path d="M 474,254 L 475,257 L 474,260 L 473,257 Z" fill="#e8d08a" opacity="0.38" filter="url(#sparkle-glow)"/>

  <!-- (624, 70) R=6 r=2.5 large -->
  <path d="M 624,64 L 626.5,70 L 624,76 L 621.5,70 Z" fill="#e8d08a" opacity="0.72" filter="url(#sparkle-glow)"/>
  <line x1="624" y1="62" x2="624" y2="64" stroke="#e8d08a" stroke-width="0.8" opacity="0.5"/>
  <line x1="624" y1="76" x2="624" y2="78" stroke="#e8d08a" stroke-width="0.8" opacity="0.5"/>
  <line x1="616" y1="70" x2="618" y2="70" stroke="#e8d08a" stroke-width="0.8" opacity="0.5"/>
  <line x1="630" y1="70" x2="632" y2="70" stroke="#e8d08a" stroke-width="0.8" opacity="0.5"/>

  <!-- (703, 214) R=4 r=1.5 medium -->
  <path d="M 703,210 L 704.5,214 L 703,218 L 701.5,214 Z" fill="#e8d08a" opacity="0.50" filter="url(#sparkle-glow)"/>

  <!-- (762, 98) R=5 r=2 medium -->
  <path d="M 762,93 L 764,98 L 762,103 L 760,98 Z" fill="#e8d08a" opacity="0.62" filter="url(#sparkle-glow)"/>
  <line x1="762" y1="91" x2="762" y2="93" stroke="#e8d08a" stroke-width="0.8" opacity="0.42"/>
  <line x1="762" y1="103" x2="762" y2="105" stroke="#e8d08a" stroke-width="0.8" opacity="0.42"/>

  <!-- (760, 260) R=3 r=1 tiny -->
  <path d="M 760,257 L 761,260 L 760,263 L 759,260 Z" fill="#e8d08a" opacity="0.30" filter="url(#sparkle-glow)"/>

</svg>
